<svg width="512" height="512" viewBox="0 0 512 512" fill="none" xmlns="http://www.w3.org/2000/svg">
<g clip-path="url(#clip0_22_10)">
<path d="M502.285 159.704L268.285 3.704C260.298 -1.211 251.774 -1.256 243.714 3.704L9.714 159.704C3.714 163.703 0 170.847 0 177.989V333.988C0 341.131 3.714 348.274 9.715 352.274L243.715 508.296C251.702 513.211 260.226 513.256 268.286 508.296L502.286 352.274C508.286 348.275 512.001 341.131 512.001 333.988V177.989C512 170.847 508.286 163.703 502.285 159.704ZM278 63.131L450.286 177.989L373.429 229.418L278 165.703V63.131ZM234 63.131V165.703L138.571 229.418L61.714 177.989L234 63.131ZM44 219.132L99.143 255.989L44 292.846V219.132ZM234 448.847L61.714 333.989L138.571 282.56L234 346.275V448.847ZM256 307.989L178.285 255.989L256 203.989L333.715 255.989L256 307.989ZM278 448.847V346.275L373.429 282.56L450.286 333.989L278 448.847ZM468 292.846L412.857 255.989L468 219.132V292.846Z" fill="#E980FC"/>
</g>
<defs>
<clipPath id="clip0_22_10">
<rect width="512" height="512" fill="white"/>
</clipPath>
</defs>
</svg>
