<svg width="135" height="108" viewBox="0 0 135 108" fill="none" xmlns="http://www.w3.org/2000/svg">
<path d="M38.2852 41.5758L41.0062 42.9258C42.2508 43.5586 43.6219 43.875 45.0352 43.875C49.9922 43.875 54.0211 39.8461 54.0211 34.8891V30.375C54.0211 22.9289 47.9672 16.875 40.5211 16.875H27C19.5539 16.875 13.5 22.9289 13.5 30.375V34.8891C13.5 39.8461 17.5289 43.875 22.4859 43.875C23.8781 43.875 25.2492 43.5586 26.5148 42.9258L29.2359 41.5758L31.0078 40.6898L28.4977 39.0234C27.5484 38.3906 27 37.3359 27 36.218V35.4375C27 32.632 29.257 30.375 32.0625 30.375H35.4375C38.243 30.375 40.5 32.632 40.5 35.4375V36.218C40.5 37.3359 39.9305 38.3906 39.0023 39.0234L36.5133 40.6898L38.2852 41.5758ZM36.4711 51.9961L33.75 50.625L31.0289 51.975C28.3711 53.3039 25.4391 54 22.4859 54C21.7266 54 20.9883 53.9578 20.25 53.8734V54C20.25 61.4461 26.3039 67.5 33.75 67.5H47.25C50.9836 67.5 54 70.5164 54 74.25C54 77.9836 50.9836 81 47.25 81H81V70.875V67.5C81 62.5008 83.7211 58.1344 87.75 55.8141C89.7328 54.675 92.032 54 94.5 54V50.625C94.5 45.0352 99.0352 40.5 104.625 40.5C106.481 40.5 108 42.0187 108 43.875V50.625V54V64.125C108 65.9813 109.519 67.5 111.375 67.5C113.231 67.5 114.75 65.9813 114.75 64.125V43.0945C114.75 32.9273 108.253 23.8992 98.5922 20.6719L96.7992 20.0812C95.1117 19.5117 94.1414 17.7398 94.6055 16.0102C95.0695 14.2805 96.7781 13.2258 98.5289 13.5633L102.727 14.407C121.5 18.1617 135 34.6359 135 53.768V54C135 80.093 113.843 101.25 87.75 101.25H87.518H54H53.8734C27.8437 101.25 6.75 80.1563 6.75 54.1266V54V45.7313C4.61953 42.6516 3.375 38.918 3.375 34.8891V30.375V30.0797C1.41328 29.3836 0 27.5273 0 25.3125C0 22.507 2.25703 20.25 5.0625 20.25H5.65312C9.45 12.2766 17.5711 6.75 27 6.75H40.5C49.9289 6.75 58.05 12.2766 61.8469 20.25H62.4375C65.243 20.25 67.5 22.507 67.5 25.3125C67.5 27.5273 66.0867 29.3836 64.125 30.0797V30.375V34.8891C64.125 35.1844 64.125 35.4797 64.1039 35.7961C66.6352 34.4883 69.525 33.7711 72.5625 33.7711H74.25C77.9836 33.7711 81 36.7875 81 40.5211C81 44.2547 77.9836 47.2711 74.25 47.2711H72.5625C69.757 47.2711 67.5 49.5281 67.5 52.3336V54.0211H79.3969C76.1906 57.607 74.25 62.332 74.25 67.5211H67.5C58.5773 67.5211 51.0047 61.7414 48.3047 53.7469C47.2289 53.9367 46.132 54.0211 45.0141 54.0211C42.0398 54.0211 39.1289 53.325 36.4711 51.9961ZM20.25 27C21.1451 27 22.0035 27.3556 22.6365 27.9885C23.2694 28.6215 23.625 29.4799 23.625 30.375C23.625 31.2701 23.2694 32.1285 22.6365 32.7615C22.0035 33.3944 21.1451 33.75 20.25 33.75C19.3549 33.75 18.4965 33.3944 17.8635 32.7615C17.2306 32.1285 16.875 31.2701 16.875 30.375C16.875 29.4799 17.2306 28.6215 17.8635 27.9885C18.4965 27.3556 19.3549 27 20.25 27ZM43.875 30.375C43.875 29.4799 44.2306 28.6215 44.8635 27.9885C45.4964 27.3556 46.3549 27 47.25 27C48.1451 27 49.0036 27.3556 49.6365 27.9885C50.2694 28.6215 50.625 29.4799 50.625 30.375C50.625 31.2701 50.2694 32.1285 49.6365 32.7615C49.0036 33.3944 48.1451 33.75 47.25 33.75C46.3549 33.75 45.4964 33.3944 44.8635 32.7615C44.2306 32.1285 43.875 31.2701 43.875 30.375Z" fill="#ADBAC7"/>
</svg>
